# xmcd
#
# Track frame offsets:
#	182
#	15562
#	25050
#	37987
#	48712
#	60340
#	71452
#	82195
#	92272
#	104835
#	115782
#	126307
#	138632
#	150310
#	164890
#	177437
#	190330
#	201320
#	211807
#	222860
#
# Disc length: 3152 seconds
#
# Revision: 1
# Processed by: cddbd v1.4PL0 Copyright (c) Steve Scherf et al.
# Submitted via: EasyCDDAExtractor 6.0.0.1
#
DISCID=200c4e14
DTITLE=Various Artist - Shaggers Delight Volume IV
DYEAR=1991
DGENRE=
TTITLE0=Bill Pinkney and The Original Drifters - WPLJ
TTITLE1=Gene and Ruth - Harchy Carchy
TTITLE2=Hank Ballard and The Midnighters - Work Wit Me Annie
TTITLE3=Little Willie John - Flamingo
TTITLE4=Hank Ballard and The Midnighters - Sexy Ways
TTITLE5=Five Royales - 30 Second Lover
TTITLE6=Billy Ward and The Dominoes - Lay It On The Line
TTITLE7=Champion Jack Dupree - Let The Doorbell Ring
TTITLE8=Hank Ballard and The Midnighters - Rock Granny Roll
TTITLE9=Sticks McGhee - Head Happy With Wine
TTITLE10=Rufus Gore - Fire Water
TTITLE11=Syl Johnson - Well Oh Well
TTITLE12=Champion Jack Dupree - Rub A Little Boogie
TTITLE13=Hank Ballard and The Midnighters - Broadway
TTITLE14=Little Willie Littlefield - KC Loving
TTITLE15=Earl Bostic - Jungle Drums
TTITLE16=Bill Robinson and The Quails - Love Of My Life
TTITLE17=Earl Bostic - Days Of Wine and Roses
TTITLE18=Shirley Wahis - Why Am I Crying
TTITLE19=Bullmoose Jackson - Bowlegged Woman
EXTD=
EXTT0=
EXTT1=
EXTT2=
EXTT3=
EXTT4=
EXTT5=
EXTT6=
EXTT7=
EXTT8=
EXTT9=
EXTT10=
EXTT11=
EXTT12=
EXTT13=
EXTT14=
EXTT15=
EXTT16=
EXTT17=
EXTT18=
EXTT19=
PLAYORDER=
